<svg xmlns="http://www.w3.org/2000/svg" width="512" height="512" fill="none"><path fill="#374836" d="M113.337 391.062c12.23-6.114 25.956-9.401 39.745-9.525 12.584-20.11 32.108-35.283 54.936-42.708 5.337-25.524 20.629-47.53 41.706-61.944v-20.206h-46.596v18.612c0 28.743-23.384 52.128-52.128 52.128s-52.128-23.384-52.128-52.128v-18.612H52.277v62.117c0 31.932 11.176 62.196 30.666 86.091h10.219a89.875 89.875 0 0 1 20.175-13.825zM166 89.91c26.761-2.187 47.873-24.648 47.873-51.963V0H88.127v37.947c0 27.315 21.112 49.776 47.873 51.963v103.414h30V89.91zm-47.873-51.963V30h65.745v7.947c0 12.216-9.938 22.153-22.154 22.153H140.28c-12.215.001-22.153-9.937-22.153-22.153z"/><path fill="#374836" d="m512 503.736-.002-.901c-.189-37.566-31.707-67.869-70.354-67.886l-14.102-.006a68.062 68.062 0 0 0 4.785-25.089c0-32.794-23.208-60.309-54.526-67.901-7.81-30.443-36.117-53.002-69.854-53.002-39.765 0-72.001 31.335-72.001 69.988 0 1.66.081 3.3.198 4.93-30.965 1.617-56.716 22.255-65.143 50.106a60.996 60.996 0 0 0-17.108-2.441c-19.557 0-36.905 9.183-47.737 23.353H70.831C31.712 434.886 0 465.711 0 503.736V512h512v-8.264zM128.872 223.324v51.966c0 12.221 9.907 22.128 22.128 22.128s22.128-9.907 22.128-22.128v-51.966h-44.256z"/></svg>