<svg xmlns="http://www.w3.org/2000/svg" width="24" height="24" fill="none"><mask id="a" width="24" height="24" x="0" y="0" maskUnits="userSpaceOnUse" style="mask-type:alpha"><path fill="#D9D9D9" d="M0 0h24v24H0z"/></mask><g mask="url(#a)"><path fill="#374836" d="M20.349 4.762c-1.722-1.155-4.268-1.097-7.863.866-3.594 1.964-7.151 2.138-7.151 2.138C1.703 7.88-.88 9.729.281 16.428c1.16 6.7 5.428 8.143 7.712 7.392 2.284-.75 4.83-1.905 8.612-.75 3.781 1.155 6.89-4.39 7.338-8.028.45-3.638-1.872-9.125-3.594-10.28zM8.888 14.003c-.196 0-.273.059-.412.165-.176.136-.418.32-.856.32-.437 0-.679-.184-.855-.32-.139-.106-.215-.165-.412-.165-.196 0-.272.059-.41.165-.177.136-.419.32-.856.32-.438 0-.68-.184-.856-.32-.139-.106-.215-.165-.411-.165-.227 0-.41-.219-.41-.489s.183-.488.41-.488c.437 0 .679.185.855.32.14.107.216.165.412.165.196 0 .272-.058.41-.165.178-.135.42-.32.856-.32.438 0 .68.185.856.32.139.107.215.165.411.165.196 0 .273-.058.412-.165.176-.135.418-.32.856-.32.226 0 .41.218.41.488s-.184.489-.41.489zm7.924 4.528c-.196 0-.273.06-.411.165-.177.136-.419.321-.856.321s-.679-.185-.855-.32c-.14-.107-.216-.166-.412-.166-.196 0-.272.06-.411.165-.177.136-.419.321-.856.321s-.679-.185-.855-.32c-.14-.107-.216-.166-.412-.166-.226 0-.41-.218-.41-.488s.184-.489.41-.489c.437 0 .68.186.856.32.139.107.215.166.41.166.197 0 .273-.059.412-.165.177-.135.418-.32.856-.32.437 0 .68.185.856.32.138.106.215.165.411.165.196 0 .273-.059.412-.165.176-.135.418-.32.855-.32.227 0 .41.218.41.488s-.183.488-.41.488zm3.179-8.606c-.197 0-.273.058-.412.165-.176.135-.418.32-.855.32-.438 0-.68-.185-.856-.32-.139-.107-.215-.165-.411-.165-.196 0-.273.058-.412.165-.176.135-.418.32-.856.32-.437 0-.679-.185-.855-.32-.139-.107-.215-.165-.411-.165-.227 0-.41-.219-.41-.489s.183-.488.41-.488c.437 0 .679.185.855.32.139.106.215.165.411.165.197 0 .273-.059.412-.165.176-.135.418-.32.856-.32.437 0 .679.185.855.32.139.106.216.165.412.165.196 0 .272-.059.411-.165.177-.135.418-.32.856-.32.226 0 .41.218.41.488s-.184.489-.41.489z"/></g></svg>