<svg xmlns="http://www.w3.org/2000/svg" width="24" height="24" fill="none"><mask id="a" width="24" height="24" x="0" y="0" maskUnits="userSpaceOnUse" style="mask-type:alpha"><path fill="#D9D9D9" d="M0 0h24v24H0z"/></mask><g mask="url(#a)"><path fill="#374836" fill-rule="evenodd" d="m10.594 24-8.252-8.306-.412-.359a6.746 6.746 0 0 1-.944-1.209c1.714-.12 4.04-.478 4.718-1.422.04 0 .319-.611.89-.478.917.226 2.033 2.113 2.087 2.95.12 1.037-.16 1.887.106 2.552.438 1.116 1.727.77 1.993 1.13.093.119.12.371.173.677.213 1.462.532 1.688.558 3.535l-.917.93zM.468 13.09C-1.233 8.73 1.903 4 6.648 4a6.57 6.57 0 0 1 4.69 1.927 6.617 6.617 0 0 1 3.588-1.834c-.61 1.103-1.475 2.565-1.66 2.804a11.8 11.8 0 0 1-1.25.412c-.372.106-.638.173-.864.425-.279.293-.824 1.582-.784 2.033.04.4.266.572.492.878.346.465.585.558 1.183.358 1.156-.398 4.199-2.644 5.236-2.365.172.053.12.133.279.266.093.08.358.345.438.598.372 1.435 1.887 2.312 3.163 1.01.16-.16.12-.293.226-.519l1.289.745c-.027 1.727-.77 3.574-2.047 4.717.147-.77.093-.69.2-.943.292-.678.305-1.236.04-1.662-.32-.478-.878-.57-1.077-.584l-3.668-.81c-.544-.253-1.01-.28-1.395-.067a1.27 1.27 0 0 0-.598.797c-.332.518-.186.957-.093 1.196-.571.292-1.515.319-1.914 1.302-.584 1.409.984 3.602 1.05 3.88.226.453 1.223 1.529 2.02 2.326l-2.777 2.778a.592.592 0 0 0 .16-.386c0-.77-.067-1.9-.386-2.897-.399-1.315.066-2.538-1.94-2.804-.532-.08-.572-.16-.505-1.13.106-1.368-.04-2.285-.93-3.614-.346-.518-1.064-1.408-1.967-1.634-.439-.12-1.29-.146-2.02.89-.399.545-2.618.904-4.36.997zm18.79 3.707-3.322 3.336c-.757-.744-1.66-1.741-1.807-2.033-.412-.824-1.316-2.286-1.023-3.004.266-.637 1.608-.478 1.98-1.275.146-.333.026-.612-.04-.784-.146-.346.053-.2.106-.559.054-.345.479-.04.678 0l3.88.85c.067.014.213.04.253.107.04.053.053.253-.093.611-.093.147-.306 1.675-.611 2.751zM16.163 4c3.176.053 5.86 2.326 6.406 5.448-.28-.159-.519-.305-.545-.318-.386-.346-.744-.32-.93-.266-.479.146-.705.678-.798.996-.226.2-.438.266-.624.213-.36-.12-.585-.598-.652-.824-.132-.531-.544-.943-.717-1.103a1.252 1.252 0 0 0-.758-.531c-1.541-.412-4.491 1.78-4.85 1.873-.04 0-.665.386-.997.505l-.252-.332.478-1.196c.027-.04.2-.08.386-.133.292-.08.757-.212 1.435-.478.372-.146.81-.97 1.076-1.435.213-.372.904-1.595 1.342-2.419z" clip-rule="evenodd"/></g></svg>