<svg xmlns="http://www.w3.org/2000/svg" width="450" height="512" fill="none"><path fill="#374836" d="M165.026 0c-8.284 0-15 6.716-15 15v191c0 2.757-2.243 5-5 5h-40V15c0-8.284-6.716-15-15-15-8.284 0-15 6.716-15 15v196h-40c-2.757 0-5-2.243-5-5V15c0-8.284-6.716-15-15-15-8.284 0-15 6.716-15 15v191c0 19.299 15.7 35 35 35h40v31h-15c-8.284 0-15 6.716-15 15v145.449c-.324 1.402-17.127 26.535.518 54.873 20.468 32.873 68.377 32.939 88.88-.015 17.312-27.828.735-53.858.502-54.864V287c0-8.284-6.716-15-15-15h-14.899v-31h40c19.299 0 35-15.701 35-35V15c-.001-8.284-6.717-15-15.001-15zm188.37 2.62a14.999 14.999 0 0 0-16.904-.024 220.18 220.18 0 0 0-96.466 182.241v81.288c0 19.299 15.701 35 35 35h55V196.032c0-8.284 6.716-15 15-15 8.284 0 15 6.716 15 15v105.094h54.949c19.299 0 35-15.701 35-35v-81.187c0-73.113-36.116-141.276-96.579-182.319z"/><path fill="#374836" d="M330.026 332h-15.051c-8.284 0-15 6.716-15 15v85.52c-.326 1.418-17.087 26.529.554 54.833 20.505 32.899 68.386 32.842 88.838-.044 17.271-27.772.73-53.849.509-54.805V347c0-8.284-6.716-15-15-15h-14.85v-30.875h-30V332z"/></svg>